<svg width="28" height="28" viewBox="0 0 28 28" xmlns="http://www.w3.org/2000/svg"><title>F3D1C825-76E2-4B79-A524-00F5C30AC13A</title><path d="M8 4.991C8 3.891 8.894 3 10.003 3h8.994C20.103 3 21 3.89 21 4.991V23.01c0 1.1-.894 1.991-2.003 1.991h-8.994A1.996 1.996 0 0 1 8 23.009V4.99zm1.15 16.342h10.636V5.444H9.15v15.89zm3.917 1.258c-.224.089-.372.382-.334.663.03.29.255.53.5.52.845.005 1.69.005 2.535 0 .296.013.55-.342.498-.693-.03-.29-.253-.53-.497-.522-.802-.006-1.604.002-2.405-.003-.1.003-.202-.004-.297.035z" fill="#4a4a4a" fill-rule="evenodd"/></svg>