<?xml version="1.0" encoding="UTF-8"?>
<svg width="21px" height="18px" viewBox="0 0 21 18" version="1.1" xmlns="http://www.w3.org/2000/svg" xmlns:xlink="http://www.w3.org/1999/xlink">
    <!-- Generator: sketchtool 41.2 (35397) - http://www.bohemiancoding.com/sketch -->
    <title>50052A3C-3B02-45F2-AC37-3FB9EEC7F9F7</title>
    <desc>Created with sketchtool.</desc>
    <defs></defs>
    <g id="1-Home" stroke="none" stroke-width="1" fill="none" fill-rule="evenodd">
        <g transform="translate(-195.000000, -402.000000)" id="ic_tshirt" fill="#9B9B9B">
            <g transform="translate(195.000000, 402.000000)">
                <g id="#4a374fff">
                    <path d="M7.85224254,0.0346712721 C9.64409904,0.0350912056 11.4355356,0.0355111392 13.2273921,0.0342513385 C13.3563117,0.033831405 13.4806121,0.0716254254 13.6040725,0.103540376 C14.7538506,0.393294533 15.9036287,0.684308491 17.0534068,0.973642714 C17.1516712,0.995899193 17.2474161,1.04545135 17.3032673,1.1323776 C18.4904194,2.9128959 19.6771517,4.6934142 20.8643039,6.47393249 C20.9302334,6.57555642 21.01506,6.6742408 21.0305975,6.799381 C21.0587331,6.96651456 20.9802055,7.14414646 20.8370082,7.23527204 C19.9312115,7.8403963 19.0228952,8.44132123 18.1158387,9.04434582 C17.9499649,9.16822622 17.6925457,9.14638968 17.5598467,8.98429532 C17.3267835,8.70419964 17.2313834,8.28135549 17,8 C16.9995801,11.5606167 17,18 17,18 L4.02874747,18 C4.02874747,18 4.03840594,11.5308014 4.02874747,8 C4.0153096,7.98698206 3.8364179,8.60383551 3.67684315,8.79784482 C3.58193816,8.90954715 3.50257072,9.05358436 3.3547541,9.10145678 C3.21407636,9.15268868 3.05786108,9.11237506 2.93943981,9.02670861 C2.10041256,8.46819697 1.26096537,7.91094514 0.421518181,7.35285344 C0.298057715,7.26760692 0.148561367,7.19831789 0.0805321301,7.05680028 C0.00872349115,6.919482 0.0263607007,6.74604944 0.118326151,6.62300891 C1.28910092,4.86936636 2.45861589,3.11572381 3.62645112,1.35998159 C3.72723517,1.20334637 3.83095876,1.01815567 4.02874747,0.974902515 C5.16508768,0.685988225 6.3026877,0.402113138 7.43902792,0.112778914 C7.57508639,0.0800240967 7.710305,0.0329915378 7.85224254,0.0346712721 Z M9.95023061,2.70964805 C10.5465363,2.87300221 11.2087715,2.78019689 11.7341084,2.45264872 C12.2997589,2.11250253 12.8786392,1.64879735 13,1 C11.476481,1 9.52351896,0.998740199 8,1 C8,1 9.09524588,2.4900228 9.95023061,2.70964805 Z M4.39408967,1.74758027 C3.279586,3.41639624 2.16592219,5.08563214 1.05099859,6.75360825 C1.73968963,7.21889463 2.4288006,7.68292122 3.11707171,8.14862753 C3.46519663,7.7152561 3.81416142,7.28314447 4.16144647,6.84893316 C4.25509166,6.7317717 4.34453751,6.59319363 4.49655346,6.54826073 C4.76069167,6.44999628 5.06934283,6.69229795 5.04750629,6.97113383 C5.05128569,10.7954688 5.04246709,13.1756651 5.04750629,17 C8.70302793,17.0012598 12.362329,17.0008399 16.0174307,17 C16.0199503,13.2470538 16.0170108,10.9378262 16.0174307,7.18488001 C16.0224699,7.03874313 15.9939144,6.87958831 16.072442,6.74772918 C16.1623078,6.58479495 16.3642958,6.49324944 16.5452872,6.54742087 C16.7254387,6.58521489 16.824543,6.75150858 16.9316261,6.88420758 C17.2721922,7.30414114 17.608139,7.72743417 17.949545,8.14652787 C18.6504141,7.68460095 19.3491836,7.21889463 20.047953,6.75360825 C18.9334493,5.08479227 17.8214653,3.4147165 16.7040221,1.7480002 C15.6907224,1.49646 15.0141395,1.24692093 14,1 C14,1 14,2 13,3 C12,4 10.701289,4.06173023 10,4 C9.31718803,3.94876811 8.77490449,3.77490449 8,3 C7.22509551,2.22509551 7,2 7,1 C5.99257939,1.25112027 5.40151028,1.49729986 4.39408967,1.74758027 Z" id="Shape"></path>
                    <path d="M12.2274894,6.04688092 C12.3078927,5.99900253 12.3988343,6.0014962 12.4854824,6 C13.2005251,6.007481 13.915958,5.99601013 14.6310007,6.00548607 C14.8710395,6.00249367 15.0517517,6.33614619 14.9865705,6.62441399 C14.9494913,6.8513376 14.7722918,7.01093223 14.5935312,6.99896263 C13.8640472,7.00095757 13.1345632,6.99946137 12.4050792,6.99946137 C12.248566,7.00694237 12.094785,6.88774513 12.0331165,6.70321384 C11.946078,6.46481936 12.0374099,6.15111616 12.2274894,6.04688092 Z" id="Shape"></path>
                </g>
            </g>
        </g>
    </g>
</svg>